<?xml version="1.0" encoding="UTF-8" standalone="no"?>
<svg id="Layer_1_2_" xmlns:rdf="http://www.w3.org/1999/02/22-rdf-syntax-ns#" xmlns="http://www.w3.org/2000/svg" enable-background="new 0 0 269.192 109.142" xml:space="preserve" height="74.45" viewBox="0 0 219.72865 74.450341" width="219.73" version="1.1" y="0px" x="0px" xmlns:cc="http://creativecommons.org/ns#" xmlns:xlink="http://www.w3.org/1999/xlink" xmlns:dc="http://purl.org/dc/elements/1.1/"><metadata id="metadata195"><rdf:RDF><cc:Work rdf:about=""><dc:format>image/svg+xml</dc:format><dc:type rdf:resource="http://purl.org/dc/dcmitype/StillImage"/><dc:title/></cc:Work></rdf:RDF></metadata><defs id="defs193"><clipPath id="SVGID_2_"><use id="use14" xlink:href="#SVGID_1_" height="109.142" width="269.19199" y="0" x="0" overflow="visible"/></clipPath><radialGradient id="radialGradient4265" gradientUnits="userSpaceOnUse" cy="16.424" cx="18.52" r="81.769"><stop id="stop87" stop-color="#FFCD4D" offset="0"/><stop id="stop89" stop-color="#F6C338" offset="1"/></radialGradient><radialGradient id="radialGradient4267" gradientUnits="userSpaceOnUse" cy="16.425" cx="18.522" r="81.768"><stop id="stop94" stop-color="#0DA960" offset="0"/><stop id="stop96" stop-color="#03914B" offset="1"/></radialGradient><radialGradient id="radialGradient4269" gradientUnits="userSpaceOnUse" cy="16.426" cx="18.52" r="81.765"><stop id="stop101" stop-color="#4387FD" offset="0"/><stop id="stop103" stop-color="#4683EA" offset="1"/></radialGradient><radialGradient id="radialGradient4271" gradientUnits="userSpaceOnUse" cy="16.427" cx="18.522" r="81.763"><stop id="stop108" stop-color="#E04A3F" offset="0"/><stop id="stop110" stop-color="#CD372D" offset="1"/></radialGradient><linearGradient id="linearGradient4273" y2="61.881" gradientUnits="userSpaceOnUse" x2="33.711" y1="61.881" x1="53.409"><stop id="stop115" stop-color="#231F20" stop-opacity=".2" offset="0"/><stop id="stop117" stop-color="#F1F2F2" stop-opacity=".25" offset="1"/></linearGradient><radialGradient id="radialGradient4275" gradientUnits="userSpaceOnUse" cy="52.861" cx="40.488" r="28.635"><stop id="stop122" stop-color="#fff" stop-opacity=".1" offset="0"/><stop id="stop124" stop-color="#fff" stop-opacity=".091" offset=".0896"/><stop id="stop126" stop-color="#fff" stop-opacity="0" offset="1"/></radialGradient></defs>
<g id="layer2" transform="translate(1.8672 1.5566)"><g id="Color_Fill_1_xA0_Image_1_" mask="url(#Color_Fill_1_xA0_Image_2_)" transform="translate(-19.897 -17.893)"><g id="g4"><path id="path6" fill="#f0f0f0" display="none" d="m212.61 49.937-17.5-29.146c-0.967-1.608-3.297-2.93-5.178-2.93h-0.059l-167.68 0.004c-1.748 0-2.449 1.154-1.768 2.608l6.646 11.067c0.059 0.111 0.088 0.252 0.146 0.371l10.824 18.016c0.969 1.617 0.969 4.252 0 5.86l-6.384 10.753c-0.061 0.087-0.154 0.167-0.219 0.26l-10.893 18.132c-0.969 1.608-0.221 2.93 1.654 2.93l167.68-0.004h0.059c1.881 0 4.211-1.313 5.178-2.929l6.674-11.104 10.824-18.029c0.969-1.616 0.969-4.251 0-5.859z"/><g id="g8" display="none"><defs id="defs10"><path id="SVGID_1_" d="m212.61 49.937-17.5-29.146c-0.967-1.608-3.297-2.93-5.178-2.93h-0.059l-167.68 0.004c-1.748 0-2.449 1.154-1.768 2.608l6.646 11.067c0.059 0.111 0.088 0.252 0.146 0.371l10.824 18.016c0.969 1.617 0.969 4.252 0 5.86l-6.384 10.753c-0.061 0.087-0.154 0.167-0.219 0.26l-10.893 18.132c-0.969 1.608-0.221 2.93 1.654 2.93l167.68-0.004h0.059c1.881 0 4.211-1.313 5.178-2.929l6.674-11.104 10.824-18.029c0.969-1.616 0.969-4.251 0-5.859z"/></defs><clipPath id="clipPath3901" display="inline"><use id="use3903" xlink:href="#SVGID_1_" height="109.142" width="269.19199" y="0" x="0" overflow="visible"/></clipPath><g id="g16" fill="#e0e0e0" display="inline" clip-path="url(#SVGID_2_)"><path id="path18" d="m103.29 27.78c0.066-0.028 0.234 0.042 0.281 0 0.15-0.135 0.252-0.58 0.426-0.847 0.236-0.363 0.49-0.377 0.561-0.705 0.064-0.266-0.252-0.985-0.133-1.55 0.039-0.224 0.275-0.327 0.418-0.56 0.264-0.447 0.443-0.773 0.703-1.268 0.279-0.522 0.348-1.312 0.141-2.259 0.209-0.167 0.396-0.352 0.566-0.562-0.295-1.22-0.006-2.403 0.562-3.383 0.125-0.219 0.201-0.459 0.281-0.562 0.465-0.651 1.596-0.975 1.553-1.975-0.418-0.717-1.496-0.588-2.26-0.275-0.125-0.253-0.338-0.418-0.422-0.712 0.111-0.407 0.668-0.361 0.561-0.983-0.201-0.403-0.639-0.528-0.982-0.844-0.58-0.54-0.801-1.023-1.691-1.268-0.264-0.075-0.77-0.159-0.982-0.141-0.285 0.014-0.738 0.461-1.271 0.562-0.383 0.072-0.801-0.081-0.986 0-0.559 0.247-0.822 1.014-1.408 1.264-0.476 0.211-0.761-0.204-1.128 0.288-0.355-0.584-1.236-0.642-2.256-0.568-0.068-1.852-1.674-2.175-2.957-2.818h-2.25c-0.703 0.759-2.229 0.688-3.387 0.991-0.408 0.244-0.354 0.955-0.705 1.268-0.281-0.146-0.219-0.626-0.699-0.568-1.471 0.651-1.959 2.274-2.121 4.229 0.129 0.58 1.047 0.371 1.133 0.987-0.232 0.755-1.023 0.951-1.836 1.126-0.703-0.048-0.508-0.999-1.406-0.847-0.924 0.739 1.082 1.751-0.146 2.395-0.68-0.336-1.021-0.979-0.697-1.967-0.492-0.62-1.139-0.229-2.117-0.288-0.424 0.812 0.318 1.275 0.422 1.975 0.672 0.085 1.244 0.26 1.41 0.844 0.441 0.072 0.498-0.252 0.982-0.133 0.549 1.129 2.854 1.723 4.23 1.12 0.174-0.398 0.174-0.872 0-1.263-0.826-0.616-2.311 0.288-2.531-0.849 0.789-0.463 1.176 0.561 2.25 0.28 0.34 0.407 0.814 0.465 1.41 0.28 0.412-0.584 0.553-1.22 1.125-1.687 0.18-0.146 0.578-0.125 0.846-0.28 0.232-0.135 0.291-0.432 0.566-0.428 0.209-0.4 0.256-0.963 0.559-1.267 1.111-0.115 1.578-0.864 2.541-1.125 0.156 0.405 0.252 0.872 0.279 1.409-0.689 0.667-2.207 0.51-3.1 0.982 0.359 1.169-0.371 2.603 0.426 3.382 1.164 0.268 1.988 0.012 2.535 0.848 0.293 0.447 0.475 1.798 0.428 2.821-0.025 0.403-0.275 0.828-0.289 1.268-0.012 0.407 0.182 0.868 0.143 1.124-0.066 0.421-0.549 0.743-0.422 1.127-0.057 0.576 0.6 0.435 0.705 0.846-0.387 0.54-1.029 1.12-1.129 2.116-0.074 0.751 0.312 2.421 0.564 3.237 0.205 0.691 0.262 1.115 0.705 1.411 0.141 0.089 0.389 0.027 0.562 0.141 0.367 0.234 0.537 0.761 0.988 0.566 0.674-0.438 0.812-1.264 1.268-1.975 0.062-0.104 0.057-0.312 0.143-0.419 0.039-0.063 0.248-0.092 0.275-0.147 0.223-0.401 0.135-0.914 0.566-1.264 0.375-0.308 1.408-0.26 2.115-0.711 0.545-0.342 0.834-1.097 1.549-1.404 0.525-0.23 1.391-0.149 1.975-0.423 0.062-0.036 0.092-0.261 0.143-0.28 0.072-0.032 0.213 0.044 0.279 0 0.051-0.038 0.094-0.258 0.137-0.282z"/><path id="path20" d="m139.64 13.123c0.086 0.052 0.186 0.238 0.285 0.286 0.848 0.376 1.436 0.022 2.111-0.143 0.262 0.355 0.262 0.963 0.846 0.987 0.479-0.179 0.811-0.511 0.988-0.987-0.281-0.316-0.543-0.811-1.131-0.847-0.43-0.027-0.561 0.144-0.982 0.282-0.459-0.62-0.98-1.182-1.975-1.27-0.262-0.532-0.553-1.037-1.406-0.983-0.533 0.695-0.305 1.552 0.139 2.11 0.102 0.129 0.951 0.456 1.125 0.565z"/><path id="path22" d="m80.886 14.395h0.988c0.074 0.439 0.25 0.787 0.422 1.127 0.391 0.103 0.43-0.32 0.564-0.568 0.578-1.062-0.158-1.391-0.848-1.83 0.039-0.592-0.408-0.715-0.566-1.122-1.452-0.136-1.222 1.885-0.56 2.393z"/><path id="path24" d="m159.23 12.702c-0.389-0.943-2.412-0.544-3.096-0.143-0.207 2.394 2.94 1.818 3.096 0.143z"/><path id="path26" d="m161.2 12.42c-0.047-0.284-0.51-0.338-0.982-0.141-0.028 0.951 1.058 0.548 0.982 0.141z"/><path id="path28" d="m77.363 13.968c0.371-0.146 0.633-0.401 0.703-0.845 0.338-0.133 0.695-0.248 0.566-0.844h-0.703c0.02 0.727-0.928 0.486-1.268 0.844-0.029 0.547 0.225 0.811 0.702 0.845z"/><path id="path30" d="m128.24 14.677c0.338 0.038 0.264-0.079 0.562-0.282 0.51-0.354 0.486-0.371 0.703-0.848 0.119-0.249 0.385-0.336 0.281-0.561-0.408-0.352-0.703 0.607-1.268 0.561-0.289-0.181-0.252-0.682-0.846-0.561-0.606 0.832-0.055 1.612 0.568 1.691z"/><path id="path32" d="m73.566 15.521c-0.107 1.043 0.438 1.438 0.84 1.971 1.299-0.32 3.107 0.308 3.385-0.845 0.105-0.479-0.213-0.34-0.428-0.707-0.141-0.236 0.037-0.724-0.418-0.699-0.588-0.113-0.268 0.675-0.85 0.56-0.422-0.327-0.596-0.903-0.846-1.406 0.119-0.397 0.459-0.58 0.424-1.128-0.604-0.428-1.039-0.261-1.549 0-0.557 0.284-1.557 0.6-1.557 1.128 0.212 0.502 0.833 0.589 0.999 1.126z"/><path id="path34" d="m126.4 15.096v-0.842c-0.404-0.328-1.064-0.022-1.412 0.141 0.127 0.612 0.734 1.054 1.412 0.701z"/><path id="path36" d="m182.06 15.662c-0.732-0.421-1.35 0.125-1.836 0.139-0.43 0.013-0.928-0.208-1.404-0.279-0.324-0.048-0.633 0.035-0.988 0-0.709-0.08-1.438-0.355-2.113-0.426-1.107-0.103-1.59 0.362-2.393 0.426-0.17 0.21-0.182 0.578-0.428 0.707-0.549-0.107-0.871 0.396-1.266 0.561-0.285 0.123-0.648 0.162-0.984 0.285-0.316 0.104-0.566 0.386-0.992 0.274-0.588-0.288-0.941-1.053-1.688-1.12-0.705-0.063-1.307 0.676-1.973 0.703-0.229 0.008-0.359-0.079-0.568-0.143-0.193-0.064-0.576-0.082-0.699-0.142-0.426-0.187-0.537-0.628-1.129-0.707-0.428-0.048-0.814 0.225-1.268 0.288-0.66 0.087-1.234-0.177-1.83 0.137-0.363 0.436 0.039 1.006 0 1.55-0.514 0.24-1.055 0.455-1.693 0.568-0.439 0.163-0.398 0.816-0.984 0.84-1.152-0.769-1.246-2.603-3.668-2.107-0.258 0.396-0.258 1.049-0.842 1.122-0.635 0.034-0.904-0.392-1.555-0.423-0.752-0.036-1.688 0.727-2.395 0 0.189-2.153-1.365-3.598-3.238-2.819-0.689-0.202-1.012-0.771-1.832-0.842-0.016 0.219-0.359 0.109-0.281 0.423-0.5 0.461 0.129 1.152 0 1.552-0.213 0.638-0.746 0.711-1.547 0.846-0.689 1.113-2.428 1.544-1.836 3.519-0.285 0.274-0.93 0.201-0.988 0.705-0.324 0.147-0.287 0.649-0.275 1.123-0.637 0.266-0.973 0.826-1.695 0.991-0.549-0.388-0.762-1.115-1.688-1.129-0.133 0.576-0.461 1.979-0.426 2.535 0.037 0.58 0.682 1.087 0.283 1.552-0.859-0.165-1.34-0.309-2.252-0.142-0.084 0.248 0.168 0.826-0.143 0.849-0.652 0.56-1.547 0.194-2.252 0.427-0.057 0.01-0.217 0.24-0.289 0.276-0.182 0.096-0.402 0.023-0.557 0.141-0.445 0.328-0.506 1.055-1.133 1.127-0.273-0.336-0.186-1.035-0.846-0.983-0.578 0.276 0.375 1.579-0.561 1.687-0.613-0.044-0.533-0.775-0.846-1.131-1.098-0.584-2.219-1.16-3.664-1.404-0.391-0.442-0.68-0.874-1.125-0.987-1.322-0.327-2.299 0.549-2.82 0.849-0.4 0.227-0.611 0.25-0.846 0.427-0.289 0.209-0.529 0.394-0.707 0.561-0.479 0.442-0.363 0.983-0.561 1.545-0.082 0.236-0.422 0.505-0.564 0.845-0.16 0.388-0.119 0.836-0.281 1.13-0.027 0.046-0.24 0.094-0.285 0.14-0.098 0.113-0.041 0.306-0.137 0.423-0.727 0.906-1.539 1.035-2.113 1.834 0.045 1.128 0.119 2.227 0.699 2.818 0.912 0.207 0.955-0.461 1.691-0.421 0.197 0.272 0.137 0.803 0.287 1.124-0.209-0.204-0.924-0.204-1.135 0-0.318 0.599 0.084 1.079 0 1.834-0.354 0.252-0.779 0.439-1.264 0.561-0.373 0.379-0.564 0.943-1.129 1.126-0.059-0.699-1.326-2.03-1.832-3.097-0.143-0.312 0.025-0.72-0.139-0.985-0.273-0.455-0.924-0.489-1.271-0.286-0.395 0.268-0.26 1.051-0.279 1.694-0.969 0.296-1.828 1.295-1.412 2.531 0.818 0.166 1.029-0.284 1.555-0.42 0.201-0.452 0.059-1.251 0.701-1.267 0.273 0.582-0.494 1.702 0 2.536 0.475 0.09 1.312-0.179 1.553 0.142-0.27 0.482-0.949 0.562-1.41 0.846 0.027 0.934 1.363 1.156 1.127 2.116-0.322 1.343-1.986 0.216-3.098 0.842-0.352 0.284-0.078 0.791-0.143 1.27-0.102 0.771-0.461 1.412-0.143 1.969 0.482 0.544 1.172 0.3 1.27 0.987 0.111 0.757-0.768 0.936-1.412 1.694-0.295 0.352-0.33 1.417-0.416 1.548-0.285 0.425-1 0.636-1.41 0.987-0.486 0.411-0.803 0.974-1.125 1.554-0.215 0.371-0.52 0.888-0.57 1.263-0.078 0.597 0.201 1.536 0.143 2.257-0.023 0.251-0.248 0.495-0.275 0.703-0.258 1.522 0.645 1.778 1.262 2.541 0.23 0.284 0.258 0.445 0.424 0.701 0.328 0.499 0.547 0.67 0.986 0.985 0.42 0.3 0.59 0.489 0.982 0.711 0.957 0.517 1.146 0.003 2.256 0 0.395-0.006 0.818 0.182 1.131 0.134 0.305-0.04 0.629-0.309 0.986-0.424 1.402-0.452 1.645-0.192 2.537 0.708 0.635-0.024 1.256-0.032 1.408 0.423 0.355 0.676-0.322 1.418-0.145 2.255 0.156 0.703 0.936 1.082 1.271 1.69 0.18 0.328 0.451 0.908 0.568 1.406 0.086 0.421 0.209 1.264 0.135 1.692-0.053 0.326-0.443 0.471-0.562 0.701-0.078 0.155-0.109 0.465-0.141 0.568-0.359 1.16 0.043 1.973 0.422 2.819 0.182 0.411 0.461 0.822 0.564 1.268 0.129 0.569 0.059 1.07 0.139 1.547 0.139 0.787 0.871 1.365 1.129 2.118 0.25 0.729-0.012 1.567 0.707 2.109 1.016-0.146 2.137-0.115 2.955-0.28 0.17-0.037 0.967-0.407 0.99-0.425 0.404-0.386 0.775-0.676 1.27-1.268 0.646-0.769 1.246-1.492 1.404-2.533 0.508-0.463 0.934-0.381 1.131-0.989 0.176-0.552-0.193-1.324 0-1.831 0.33-0.868 1.973-1.148 2.391-1.83 0.414-0.657 0.346-2.304 0.143-2.816-0.166-0.417-0.379-0.858-0.418-1.273-0.078-0.703 0.146-1.152 0.275-1.41 0.316-0.616 0.393-0.781 0.846-1.264 0.332-0.352 0.727-0.814 0.984-0.987 0.816-0.543 1.783-1.375 2.121-2.108 0.02-0.058 0.248-0.087 0.275-0.143 0.439-0.776 0.877-1.738 0.99-2.682-0.871-0.924-3.027 0.967-3.525-0.423 0.254-0.441 0.953-0.474 1.551-0.702 0.635-0.246 1.479-0.562 1.975-0.846 0.141-0.084 0.176-0.217 0.277-0.28 0.549-0.346 1.084-0.403 1.553-0.707 0.074-0.048 0.197-0.219 0.281-0.284 0.43-0.348 0.678-0.612 0.986-1.126 0.26-0.43 0.482-0.779 0.428-1.127-0.139-0.862-1.139-0.48-1.273-1.548 1.438 0.237 2.521 0.267 4.088 0.14 0.734 0.628 1.527 1.2 1.971 2.113 0.523 0.046 0.969 0.161 1.271 0.422 0.053 1.255 0.66 2.117 0.988 2.82 0.09 0.205 0.059 0.354 0.137 0.564 0.072 0.179 0.215 0.276 0.281 0.421 0.318 0.655 0.553 1.285 0.988 1.83 0.525 0.103 0.607-0.241 1.129-0.14-0.016 0.674 0.174 1.143 0.707 1.27 0.205-0.131 0.688-0.707 0.275-0.985 0.078-0.642-0.75-0.377-0.703-0.985-0.141-0.498 0.139-1.402 0.139-1.552 0-0.047-0.166-0.31-0.139-0.565 0.064-0.511 1.262-1.544 1.691-1.971 1.023-1.023 1.521-1.719 2.963-1.688 0.773 0.769 1.465 1.629 1.828 2.811 0.426 0.201 0.508-0.063 1.129 0 0.461 0.715 0.773 1.569 0.986 2.539 0.545-0.06 0.389-0.837 1.125-0.707 1.342 0.467 0.953 1.563 2.119 1.553 0.406-0.006 0.836-0.565 0.982-0.705 0.375-0.35 0.656-0.588 0.707-0.991 0.051-0.427-0.322-1.44-0.426-1.543-0.061-0.064-0.08-0.227-0.143-0.284-0.254-0.249-0.637-0.32-0.842-0.564-0.727-0.851-0.285-1.975 0.842-1.832 0.412 0.309-0.459 1.277 0.428 1.27 0.619-0.037 0.27-1.041 0.559-1.406 1.135-0.484 2.152-0.741 2.82-1.408 0.643-0.647 0.635-0.893 0.986-1.834 0.33-0.872 0.475-1.136 0.277-1.973-0.055-0.256-0.074-0.701-0.139-0.85-0.119-0.312-0.539-0.612-0.707-0.845-0.129-0.185-0.197-0.443-0.277-0.562-0.219-0.315-0.271-0.165-0.283-0.56-0.012-0.566 0.979-1.027 0.561-1.409-0.58-0.407-1.395 0.278-1.686-0.425 0-0.705 0.447-0.962 0.846-1.27 0.453 0.513 0.787 0.596 1.686 0.426 0.316 0.671 0.904 1.157 1.275 1.829 0.193 0.361 0.105 0.896 0.564 1.128 0.416-0.051 0.713-0.224 0.98-0.423 0.182-1.537-0.873-1.848-1.27-2.818 0.445-0.549 0.479-1.492 0.846-2.114 0.342-0.229 0.91-0.225 1.271-0.425 0.389-0.511 0.736-1.304 0.988-2.109 0.217-0.72 0.57-1.924 0.559-2.539-0.002-0.457-0.527-0.866-0.135-1.27 0.166 0.729 0.379 1.408 0.986 1.69 1.078-1.484-0.959-2.551-1.135-4.082-1.443-0.401-3.213 0.023-3.521-1.131-0.023-0.117 0.225-1.204 0.283-1.41 0.018-0.05 0.266-0.205 0.281-0.28 0.125-0.469 0.066-1.381 0.285-1.692 0.422-0.612 1.16-0.469 1.828-0.703 0.51-0.175 0.742-0.601 1.127-0.562 0.615 0.028 0.951 0.495 1.555 0.144 0.525-0.593-0.314-2.555 0.707-2.962 0.703-0.142 0.686 0.438 1.264 0.423 0.367-0.067 0.475-0.774 0.846-0.423-0.314 0.884-0.1 1.877-0.281 2.818-0.082 0.439-0.371 0.843-0.422 1.266-0.225 1.84 0.525 2.566 1.125 3.526 0.426 0.683 0.773 1.56 1.41 1.831 0.703-0.548 0.402-1.859 0.564-2.676 0.043-0.219 0.279-0.359 0.279-0.566 0.008-0.214-0.232-0.6-0.279-0.985-0.055-0.423 0.066-0.926 0-1.13-0.158-0.455-0.795-0.767-0.988-1.266-0.244-0.622 0.068-1.061-0.279-1.552 0.633-0.592 1.299-1.14 2.398-1.267 0.211-0.912 0.451-1.796 0.84-2.535 0.256-0.355 0.959-0.257 0.99-0.851-0.172-1.064-1.305-1.195-1.551-2.107-0.047-0.179 0.141-0.596 0.139-0.847 0-0.387-0.186-0.544-0.139-0.987 0.484-0.625 1.311-0.073 2.113-0.417 0.336-0.594-0.227-0.83-0.285-1.41 0.077-0.742-0.128-1.191-0.413-1.56zm-56.646 14.653c0.465 0.146 1.152 0.071 1.551 0.283 0.01 0.76-0.885 0.62-1.551 0.704-0.204-0.187-0.204-0.792 0-0.987zm0.14 13.806c0.723-0.111 0.574 0.652 1.121 0.712 0.65 0.027 0.65-0.58 0.85-0.991h0.428c-0.08 1.537 1.588 1.326 1.971 2.397-0.488 1.184-1.553 0.292-2.398 0.141-0.959-0.173-1.686 0.32-2.814 0.424-0.82-0.766-0.062-2.374 0.842-2.683zm-6.764-6.339c-0.047-0.947 0.293-1.347 0.564-2.249 0.02-0.629-0.574-0.854-0.564-1.412 0.012-0.805 0.656-1.141 1.268-1.552 0.117-0.584 0.105-1.301 0.564-1.551 0.23-0.036 0.244 0.135 0.422 0.143 0.158 1.053-0.723 1.061-0.986 1.69-0.035 1.357 0.322 2.311 1.27 2.682-0.074 1.273-1.219 1.78-0.705 3.238-0.416 0.302-0.791-0.052-1.268 0-0.695 0.078-1.434 0.835-1.975 0.142 0.162-0.687 1.075-0.62 1.41-1.131zm6.2 14.373c-0.631-0.028-1.121-0.259-1.689-0.419-0.592-0.173-1.301-0.476-1.553-0.426-0.625 0.121-0.627 0.705-1.125 1.129-0.541-0.063-1.027-0.203-1.41-0.564-0.449-0.436-1.51-0.453-2.256-0.983 0.084-0.786-0.064-1.347-0.418-1.694-1.182 0.065-2.113-0.024-3.104 0.141-1.043 0.179-2.031 1.012-3.102 0.562 0.486-0.6 1.215-0.407 1.689-0.987 0.219-0.254 0.129-0.799 0.285-1.122 0.191-0.378 0.6-0.545 0.846-0.847 0.301-0.369 0.34-0.784 0.707-0.985 0.529-0.271 1.572-0.023 1.832-0.566 1.047 0.551 1.605 1.59 2.816 1.977 0.254 0.261 0.379 0.65 0.703 0.843 1.557-1.25-1.094-1.855-1.41-2.956 0.023-0.167 0.258-0.123 0.424-0.147 0.434 0.695 1.418 0.843 1.973 1.411-0.002 0.331 0.24 0.419 0.139 0.85 0.494 0.221 0.826 1.941 1.553 1.969 1.189 0.044 0.557-1.041 0.703-1.835 0.371-0.013 0.494-0.211 0.707 0 0.131 0.143 0.051 0.552 0.139 0.709 0.107 0.177 0.176 0.354 0.287 0.566 0.213 0.423 0.395 0.467 0.703 0.844 1.453-0.225 2.201 0.483 3.381 0.142 0.238 0.818-0.15 1.676-0.564 2.252-0.834-0.176-1.442 0.18-2.256 0.136zm6.623 8.175c-0.338-0.004-0.592-0.084-0.846-0.28-0.473-0.367-0.473-0.87-0.844-1.41-0.154-0.217-0.479-0.392-0.561-0.564-0.146-0.292-0.137-0.783-0.289-1.129-0.17-0.385-0.494-0.621-0.703-0.985-0.061-0.104 0.055-0.312 0-0.427-0.096-0.19-0.727-0.576-0.561-1.264h0.424c0.287 0.336 0.402 0.716 0.701 1.131 0.236 0.327 0.672 0.6 0.846 0.983 0.096 0.214 0.02 0.494 0.143 0.703 0.612 1.024 1.944 1.889 1.69 3.242zm0.842-15.919c0.52-0.473 0.863-1.114 1.979-0.993 0.389 0.662-0.482 0.686-0.428 1.415-0.014 0.546 0.605 0.818 0.846 1.268 0.164 0.292 0.164 0.699 0.285 0.982 0.256 0.622 0.908 1.19 0.561 1.83-0.668 0.421-1.426-0.119-1.83-0.419 0.422-2.255-1.244-2.422-1.413-4.083zm3.81 11.123c-0.711-0.002-1.504-1.5-1.975-1.967-0.162-0.208-0.162-0.357 0-0.564h0.42c0.473 0.983 1.602 1.31 2.682 1.687-0.379 0.51-0.668 0.854-1.127 0.844z"/><path id="path38" d="m160.36 15.378c0.082-0.504-0.42-0.431-0.846-0.425-0.193 0.636 0.568 0.688 0.846 0.425z"/><path id="path40" d="m116.96 20.454c0.926-0.062 0.529-1.442 1.27-1.695 0.184 0.38 0.303 0.825 0.986 0.708 0.529-0.948-0.877-1.063-0.846-1.975 0.766-0.221 1.572-0.396 1.553-1.407-0.383-0.514-1.348-0.44-2.256-0.423-0.381 0.274-0.643 0.674-1.125 0.847-0.34 0.185-0.977 0.056-1.271 0.28-0.455 1.103 0.502 1.781 0.984 2.394 0.02 0.645 0.344 0.979 0.705 1.271z"/><path id="path42" d="m95.542 69.345c-0.391-0.288-0.877-0.745-1.127-0.845-0.639-0.244-1.465-0.081-2.117-0.277-0.291-0.094-0.537-0.432-0.84-0.562-0.375-0.167-0.734-0.056-0.988-0.143-0.893-0.318-0.812-0.868-1.127-1.552-0.152-0.328-0.365-0.783-0.566-0.987-0.051-0.056-0.604-0.449-0.846-0.561-0.486-0.223-0.824-0.079-1.408-0.143-0.605-0.062-1.293-1.008-1.688-1.268-0.348-0.23-0.645-0.765-0.844-0.847-0.686-0.262-1.688 0.096-2.256 0-0.633-0.104-0.834-0.492-1.271-0.563-1.105-0.186-1.859 0.043-2.256 0.279-0.402 0.251-0.582 0.761-1.264 0.989-0.236 0.078-0.545-0.089-0.707 0.142l-0.109 0.107c-0.068-0.017-0.139-0.022-0.209-0.004l-0.104-0.104c-1.01-0.147-1.521-0.428-1.691-1.268-0.107-0.538 0.459-1.146 0.143-1.69-0.287-0.608-1.592-0.201-1.975-0.707-0.334-0.749 0.639-1.302 0.428-2.396-1.461-0.586-1.461 0.729-2.117 1.129-1.568 0.955-2.77-0.568-2.537-2.392 0.041-0.344 0.494-2.028 0.562-2.116 0.236-0.313 1.459-0.83 1.695-0.848 0.377-0.015 0.82 0.339 1.262 0.283 0.377-0.137 0.648-0.488 1.135-0.563 0.758-0.115 1.643 0.256 2.109 0.563 0.152 0.831 0.152 1.822 1.129 1.83 0.781-0.93-0.357-1.821 0-2.958 0.074-0.242 0.338-0.375 0.561-0.564 0.465-0.393 0.826-0.665 1.271-0.985 0.275-0.2 0.605-0.288 0.699-0.425 0.32-0.447 0.205-1.091 0.426-1.55 0.135-0.28 0.479-0.544 0.703-0.848 0.584-0.759 0.85-1.079 1.828-1.264 0.262-0.807 0.621-1.623 1.553-1.69 0.471-0.036 0.711 0.236 1.271 0.284 0.645-0.439 1.686-0.478 1.967-1.268-0.719-0.133-1.049-0.144-1.402-0.707-0.113-0.179 0.074-0.656 0-0.987-0.098-0.416-0.766-0.453-0.285-0.703 0.721 0.158 1.096 0.308 1.688 0.137 0.494-0.133 1.193-0.536 1.557-0.282-0.107 0.604-0.66 0.757-0.566 1.554 0.66 0.321 1.359 0.613 2.395 0.566 0.479-1.047-0.559-1.532-0.846-2.263 0.402-0.896 0.32-1.644 0-2.108-0.098-0.143-0.201-0.471-0.279-0.566-0.336-0.383-0.873-0.477-1.125-0.98-0.262-0.524-0.182-1.111-0.285-1.554-0.104-0.463-0.174-0.864-0.424-1.41-0.998-0.157-0.742 0.951-1.828 0.707-0.398-0.43-0.209-0.9-0.146-1.552-0.668-0.874-1.531-2.176-3.096-1.692-0.383 0.507-0.111 1.097-0.281 1.692-0.125 0.445-0.521 0.78-0.562 1.271-0.049 0.484 0.295 1.083 0.137 1.548-0.197 0.6-1.184 0.721-1.549 1.406-0.422 0.794 0.279 1.251-0.564 1.831-0.777-0.152-0.188-1.687-0.564-2.248-0.137-0.263-0.465-0.161-0.703-0.284-0.688-0.362-1.246-1.17-1.832-1.554-0.096-0.063-0.186-0.084-0.281-0.144-0.549-0.319-0.654-0.54-0.844-1.122-0.492-1.504 0.652-2.199 1.547-2.96 0.699-0.59 1.418-1.281 2.395-1.264 0.379 0.134 0.352 0.682 0.707 0.845 0.678-0.207 1.117-0.269 1.689-0.288 0.123-0.914-0.842-1.354-0.561-1.967 0.861-0.415 1.43-0.703 1.688-1.554 0.199-0.64 0.473-1.277 0.848-1.69 0.965-0.169 1.217 0.378 1.41 0.985-0.008 0.608-0.746 0.477-0.568 1.275 0.623 0.181 1.02-0.667 1.271 0-0.096 0.983-0.881 1.279-1.406 1.828-0.557 0.012-1.24-0.109-1.129 0.565-0.059 0.757 1.182 0.225 1.553 0.557 0.301 0.319 0.326 1.051 0.697 1.412 0.266 0.253 0.965 0.578 1.271 0.561 0.262-0.008 1.008-0.449 1.127-0.561 0.635-0.572 0.074-1.452-0.145-2.257 0.531-0.014 0.432 0.608 1.133 0.426 0.615-0.384 0.971-0.592 0.986-1.129 0.006-0.363-0.441-0.667-0.705-0.985-0.322-0.383-0.664-0.625-0.705-0.987 0.055-0.556 0.312-0.836 0.279-1.268-0.074-1.074-1.373-1.622-1.832-2.682-0.193-0.455-0.303-0.888-0.275-1.543-0.428-0.624-1.367-0.396-2.121-0.564-0.285-0.067-0.502-0.225-0.703-0.284-1.762-0.564-2.82 1.416-2.674 3.242 0.256 0.409 0.746 0.6 0.701 1.268-0.025 0.411-0.408 1.015-0.982 0.987-0.193-0.576-0.873-1.099-0.99-1.828-0.029-0.21 0.127-0.609 0.143-0.85 0.039-0.604-0.092-1.26 0.141-1.832 0.764-0.507 2.25-0.294 1.975-1.834-0.562-0.492-1.373-0.446-1.975 0-0.648-1.028-1.375-0.52-1.975 0-0.686 0.603-0.797 0.716-0.559 1.411 0.041 0.129 0.041 0.401 0.141 0.566 0.182 0.325 0.672 0.396 0.703 0.844 0.02 0.278-0.084 0.399-0.143 0.564-0.271 0.797-0.666 0.797-1.41 1.13-0.268 0.485-0.078 1.027-0.703 1.264-0.688 0.256-1.721-0.207-1.689-0.989 1.047 0.021 1.855-0.544 1.971-1.266 0.045-0.258-0.195-0.338-0.281-0.56-0.264-0.71-0.047-1.681 0.139-2.118 0.229-0.517 0.896-0.789 0.846-1.55-0.889-0.552-1.398 0.636-2.252 0.561-0.965-0.077-1.283-0.922-1.404-2.255-0.906-0.717-1.896-1.093-2.545-0.417-0.693 0.723-2.277 1.911-1.686 2.958 0.434 0.419 1.387-0.144 1.686 0.141-0.225 0.535 0.1 1.115 0 1.55-0.031 0.157-0.336 0.388-0.418 0.564-0.135 0.276 0.031 0.799-0.426 0.707-0.66-0.044-0.83-0.582-1.127-0.987-0.986-0.141-1.617-0.636-2.113-1.271-1.379-0.012-2.598 0.129-3.801 0.284-0.297-0.272-0.537-0.592-0.709-0.987-0.506-0.052-0.627-0.596-0.986-0.847-0.289-0.2-0.854-0.296-1.268-0.56-0.059-0.044-0.076-0.232-0.143-0.288-0.113-0.088-0.312-0.06-0.424-0.14-0.066-0.043-0.066-0.229-0.137-0.279-0.131-0.098-0.311-0.04-0.422-0.142-0.289-0.262-0.357-0.626-0.562-0.846-0.324-0.336-0.514-0.441-0.986-0.561-0.822-0.213-1.514 0.125-1.975 0.28-0.27 0.091-0.633 0.043-0.846 0.139-0.541 0.24-0.943 0.763-1.551 0.987-0.494 0.181-1.064-0.1-1.408 0.421-0.145 1.039 0.436 2.098 0 2.958-0.465 0.056-0.689-0.548-1.271-0.56-0.121-0.004-0.492 0.192-0.705 0.279-0.867 0.364-0.818 0.912-0.701 1.834 0.254 0.549 1.422 0.175 1.549 0.845-0.248 0.965-1.338 0.425-1.969 0.707-0.105 0.044-0.342 0.363-0.566 0.56-0.252 0.223-0.611 0.412-0.707 0.564-0.244 0.415-0.465 1.343-0.418 1.69 0.078 0.64 0.984 0.807 0.842 1.834 0.359 0.256 0.967 0.256 0.984 0.842-0.443 1.29-2.096 1.381-2.814 2.396 1.564 0.016 2.213-0.88 3.381-1.264 0.562-0.144 0.422 0.415 0.988 0.276 0.834-0.432 0.432-1.884 1.264-2.112 0.777 0.599 2.193 0.134 2.818-0.286 0.285 0.179 0.566 0.455 0.99 0.712 0.326 0.19 0.842 0.3 1.127 0.565 0.158 0.146 0.443 0.856 0.564 0.985 0.549 0.566 0.377 1.206 0.557 2.11 0.041 0.175 0.076 0.315 0.145 0.563 0.062 0.225 0.102 0.593 0.141 0.704 0.152 0.359 0.584 0.644 0.703 0.982 0.07 0.203-0.055 0.593 0 0.851 0.053 0.209 0.254 0.461 0.285 0.561 0.248 0.836-0.008 1.299-0.143 1.975 0.225 0.607 0.758 0.928 0.844 1.554 0.037 0.224-0.107 0.448-0.137 0.697-0.096 0.842-0.127 0.932-0.279 1.414-0.242 0.757-0.578 1.26-0.705 1.827-0.193 0.843-0.18 2.326 0 2.962 0.139 0.519 0.301 1.344 0.42 1.695 0.287 0.828 0.959 0.838 1.41 1.547 0.205 0.326 0.199 0.889 0.422 1.411 0.277 0.629 0.963 1.022 0.703 1.973 0.623 0.456 0.723 1.436 1.553 1.692 0.133-0.656-0.547-1.231-0.148-1.692 0.529 0.145 0.514 0.705 0.707 0.98 0.088 0.122 0.342 0.167 0.428 0.288 0.094 0.124 0.045 0.286 0.139 0.424 0.275 0.396 0.742 0.615 0.846 1.124 0.055 0.263-0.143 0.816 0 1.127 0.355 0.786 2.736 1.988 3.664 2.117 0.422 0.056 1.012-0.127 1.406 0 0.371 0.111 0.676 0.703 1.275 0.983 0.537 0.258 1.342 0.196 1.686 0.417 0.645 0.428 0.75 1.226 1.131 1.554 0.217 0.196 0.549 0.272 0.844 0.425 0.781 0.403 1.154 0.755 1.834 0h0.137c0.305 0.59 0.811 1.023 0.709 1.973-0.061 0.485-0.412 0.713-0.709 1.131-0.217 0.302-0.697 0.709-0.846 1.124-0.217 0.624 0.084 0.828 0 1.408-0.059 0.403-0.338 0.703-0.281 0.985 0.076 0.382 0.791 1.018 1.127 1.552 0.381 0.608 0.754 1.433 0.988 1.832 0.209 0.363 0.412 0.953 0.564 1.126 0.814 0.932 2.115 0.96 2.535 2.111 0.566 1.562-0.059 4.567 0 6.063 0.025 0.521 0.178 1.051 0.143 1.548-0.053 0.683-0.391 1.295-0.426 1.975-0.008 0.256 0.111 0.6 0.145 0.987 0.037 0.45-0.062 0.98 0 1.406 0.049 0.383 0.254 0.611 0.281 0.991 0.074 1.299-0.254 2.682 0 3.802 0.107 0.483 0.492 0.978 0.701 1.411 0.25 0.494 0.445 0.971 0.709 1.406 0.967 0.332 1.951 1.718 3.238 0.844 0.109-0.484-0.244-0.755-0.424-0.987-0.258-0.337-0.516-0.44-0.705-0.844-0.125-0.265-0.312-0.64-0.277-1.124 0.035-0.662 0.75-1.131 0.703-1.834-0.039-0.532-0.611-0.779-0.568-1.268 0.463-0.715 0.904-1.446 0.848-2.678 0.684-0.067 0.59-0.916 0.988-1.268 0.578-0.217 1.291-0.3 1.689-0.703 0.168-0.396 0.16-0.976 0.145-1.554 0.334-0.175 0.852-0.181 1.125-0.421 0.518-0.409 0.518-1.051 0.846-1.548 0.172-0.268 0.537-0.459 0.705-0.709 0.197-0.286 0.463-0.705 0.566-0.981 0.271-0.767-0.088-1.122 0.275-1.692 0.135-0.213 0.434-0.227 0.568-0.282 0.043-0.02 0.086-0.25 0.139-0.284 0.123-0.075 0.32-0.083 0.422-0.139 0.166-0.092 0.258-0.213 0.424-0.284 0.252-0.1 0.762-0.012 1.125-0.28 0.754-0.55 1.16-2.117 1.271-3.381 0.023-0.276-0.104-0.82 0-1.133 0.086-0.262 0.572-0.767 0.844-1.122 0.344-0.467 0.736-0.715 0.842-1.271 0.219-1.118-0.322-1.181-0.99-1.684z"/><path id="path44" d="m132.18 25.666c-0.162-0.899-0.781-1.12-0.846-1.97-0.023-0.305 0.195-0.608 0.281-0.985 0.096-0.428 0.016-0.831 0.146-1.131 0.039-0.102 0.316-0.262 0.418-0.423 0.139-0.23 0.166-0.553 0.277-0.703 0.52-0.672 1.543-1.02 1.551-1.828-0.117-0.304-0.342-0.502-0.844-0.431-0.227 0.354-0.42 0.552-0.846 0.848-0.729 0.513-1.07 0.491-1.549 1.268-0.473 0.767-0.418 1.357-0.564 2.541-0.09 0.751-0.344 1.611-0.279 1.827 0.202 0.675 1.353 1.288 2.255 0.987z"/><path id="path46" d="m106.68 30.599c-1.072-0.264-2.49-0.008-3.391 0-0.162 0.809 0.061 1.854 0.846 2.114 1.287 0.431 3.371-0.92 2.545-2.114z"/><path id="path48" d="m173.46 39.896c-0.02 0.308 0.117 0.446 0.426 0.427 0.024-0.307-0.117-0.451-0.426-0.427z"/><path id="path50" d="m173.89 43.842c0.85-0.322 1.801-0.545 1.973-1.548-0.609-0.28-1.148-0.636-1.973-0.703 0.039 0.808-0.619 1.71 0 2.251z"/><path id="path52" d="m173.33 47.083c-0.258 0.316-0.414 0.648-0.711 0.847-0.73 0.304-1.631 0.78-1.83 1.552-0.141 0.556-0.344 1.208 0.562 1.41 0.342-0.271 0.256-0.968 0.707-1.128 0.6-0.136 1.074-0.463 1.551-0.706 0.549-0.279 1.059-0.504 1.551-0.846-0.088-1.605 0.422-3.801-1.127-3.947-0.201 0.676 0.168 1.379 0 1.975-0.108 0.359-0.5 0.587-0.703 0.843z"/><path id="path54" d="m115.83 47.083c-0.211 0.215-0.248 0.966 0.281 0.847 0.219-0.215 0.254-0.968-0.281-0.847z"/><path id="path56" d="m118.09 49.197c0.477 0.062 0.797-0.044 0.699-0.562-0.41 0.013-0.794 0.05-0.699 0.562z"/><path id="path58" d="m167.26 54.833c-0.201 0.204-0.201 0.928 0 1.128 0.602-0.018 0.623-0.691 0.426-1.128h-0.426z"/><path id="path60" d="m78.208 57.652c-0.137-0.755-0.916-0.868-1.689-0.981v0.101c-0.191-0.079-0.375-0.164-0.561-0.225v-0.162c0.02-0.232-0.869-0.232-0.846 0 0.293 0.079 0.398 0.352 0.846 0.286v-0.117l0.561 0.222v0.171c0.273 0.481 0.924 1.182 1.689 0.705z"/><path id="path62" d="m79.054 58.498c0.553 0.403 1.5 0.272 1.832-0.282-0.164-0.684-2.058-0.936-1.832 0.282z"/><path id="path64" d="m168.25 58.216c-1.512-0.05-0.717 2.322-0.281 2.821 0.406 0.012 0.922-0.08 1.131 0.133-0.545 0.482-0.074 1.198 0 1.696 0.055 0.397-0.051 0.761 0 0.845 0.158 0.31 0.902 0.767 1.123 0.707 0.861-0.219 0.619-1.652-0.143-2.111 0.023-0.35 0.023-0.686-0.139-0.849-0.453-0.488-1.148-0.784-1.406-1.552-0.185-0.532 0.214-1.216-0.285-1.69z"/><path id="path66" d="m164.87 71.321c0.051-0.594-0.605-0.934-0.984-0.983-0.398-0.06-0.754 0.213-1.125 0.144-0.201-0.05-0.553-0.223-0.707-0.29-0.256-0.102-0.639-0.13-0.703-0.422 0.004-0.463 0.238-0.701 0.139-1.27-0.498-0.465-0.766-0.584-0.984-1.124-0.289-0.699-0.152-2.173-0.422-2.674-0.244-0.457-0.971-0.624-1.271-0.991-0.158-0.19-0.193-0.568-0.279-0.703-0.172-0.272-0.262-0.261-0.424-0.561-0.037-0.115-0.117-0.171-0.281-0.141-0.65 1.376 1.359 1.863 0.705 3.242-0.73-0.163-0.873-0.918-1.832-0.847-0.303 0.731 0.605 1.154 0.986 1.687 0.043 0.063-0.037 0.213 0 0.28 0.016 0.048 0.244 0.091 0.279 0.137 0.043 0.067-0.031 0.219 0 0.288 0.025 0.05 0.25 0.084 0.281 0.144 0.213 0.367 0.398 1.099 0.564 1.263 0.473 0.495 1.09 1.115 1.553 1.411 0.18 0.123 0.5 0.139 0.707 0.28 0.375 0.277 0.492 0.707 0.844 0.846 0.158 0.065 0.613-0.071 0.982 0 0.26 0.054 0.492 0.261 0.705 0.284 0.456 0.052 0.814-0.04 1.267 0z"/><path id="path68" d="m166 64.134c-0.965 0.962-1.885 1.971-3.238 2.535-0.475 1.727 1.438 2.825 3.096 2.399 0.305-0.732 0.984-1.551 1.129-2.263 0.072-0.354-0.168-0.717-0.143-1.12 0.029-0.455 0.416-0.659 0.281-1.131-0.323-0.188-0.467-0.563-1.125-0.42z"/><path id="path70" d="m167.69 67.518c-0.52 0.395-0.547 1.533-0.137 2.113h1.404c0.146-0.443-0.088-1.18 0-1.971-0.226-0.24-0.828-0.115-1.267-0.142z"/><path id="path72" d="m177.83 68.5c-0.703-0.246-1.418-0.471-1.973-0.417-0.369 0.028-0.703 0.348-1.123 0.276-0.275-0.246-0.406-0.634-0.707-0.842-0.377 0-0.811-0.056-0.986 0.143 0.135 0.596 0.287 1.068 0.703 1.408 0.16 0.129 0.488 0.052 0.701 0.136 0.225 0.095 0.383 0.337 0.568 0.427 0.258 0.127 0.494 0.014 0.703 0.139 0.459 0.276 0.398 0.878 0.564 1.415 0.688 0.16 1.09 0.642 1.828 0.558 0.514-0.054 0.709-0.628 1.27-0.558 0.746 0.238 0.805 1.162 1.979 0.981 0.221-0.688-0.943-1.093-0.85-2.112-0.819-0.604-1.536-1.142-2.677-1.554z"/><path id="path74" d="m180.94 78.365c-0.133-0.234-0.146-0.651-0.281-0.844-0.309-0.436-0.748-0.62-0.988-1.131-0.434-0.899-0.391-1.919-0.844-2.392-0.324-0.336-0.311-0.939-0.846-0.987-0.814 0.457-0.297 2.245-1.129 2.678-0.877-0.158-1.51-0.558-1.83-1.27 0.123-0.344 0.328-0.609 0.277-1.124-0.803-0.403-1.641-0.699-2.395-0.423-0.734 0.264-0.773 1.275-1.551 1.406-0.309-0.111-0.545-0.3-0.982-0.28-0.709 0.469-1.068 1.281-1.975 1.548-0.451 2.177-3.271 1.158-4.227 2.678-0.348 0.552-0.436 1.583-0.424 2.255 0.02 0.951 0.486 1.903 0.424 2.962-0.031 0.484-0.443 0.963-0.281 1.547 0.201 0.082 0.344 0.219 0.424 0.424 0.713 0.246 1.33-0.436 2.107-0.566 0.32-0.05 0.762 0.111 1.135 0 0.422-0.133 0.746-0.555 1.121-0.701 0.352-0.135 0.875-0.213 1.271-0.284 1.73-0.312 2.57 0 2.957 1.408 0.637 0.303 1.104 0.664 1.406 1.273 0.236 0.457 0.186 0.916 0.432 1.404 0.541 0.628 1.805 0.543 2.674 0.847 0.342-0.403 1.062-0.443 1.551-0.703 0.443-0.439 0.4-1.007 0.703-1.548 0.033-0.056 0.238-0.083 0.283-0.143 0.08-0.111 0.076-0.324 0.137-0.423 0.158-0.237 0.291-0.513 0.426-0.708 0.314-0.444 0.766-0.705 0.984-1.124 0.078-0.146 0.109-0.465 0.141-0.564 0.188-0.55 0.508-1.264 0.568-1.829 0.174-1.604-0.434-2.142-0.99-3.104-0.069-0.126-0.223-0.186-0.278-0.282z"/><path id="path76" d="m134.58 73.153c-0.432 0.304-0.514 0.767-0.986 1.126-0.25 0.192-0.654 0.141-0.848 0.284-0.674 0.48-0.402 1.055-0.564 1.971-0.068 0.379-0.381 0.675-0.418 1.124-0.068 0.674-0.012 1.043 0.418 1.556 1.537 0.313 1.885-1.389 2.256-2.396 0.414-1.129 1.131-2.65 0.564-3.665h-0.422z"/><path id="path78" d="m190.52 88.232h-0.281c0.08 1.389-1.02 1.615-0.707 3.238h-1.266c-0.412 0.438-0.754 0.991-1.266 1.408-0.924 0.755-2.656 1.023-2.117 2.679 1.445 0.659 1.881-1.016 2.395-1.548 0.068-0.067 0.355-0.096 0.426-0.141 0.23-0.155 0.314-0.338 0.418-0.566 0.02-0.04 0.248-0.098 0.285-0.14 0.383-0.461 0.699-0.87 0.986-1.271 0.537-0.058 1.018-0.411 1.268-0.703 0.148-0.165 0.162-0.413 0.281-0.56 0.451-0.549 0.727-0.524 0.707-0.991-0.035-0.652-0.805-0.754-1.129-1.405z"/><path id="path80" d="m176.28 90.061c-0.424 0.396-0.607 1.483-0.141 1.975 1.07 0.04 1.453-0.616 1.41-1.688-0.404-0.122-0.873-0.172-1.269-0.287z"/></g></g><g id="g82"><g id="g84"><path id="path91" fill="url(#radialGradient4265)" d="m45.218 61.804-15.687 26.057h7.922c1.877 0 4.205-1.315 5.172-2.93l6.674-11.105c0.789-1.629 0.762-3.997-0.139-5.499l-3.942-6.523z"/><path id="path98" fill="url(#radialGradient4267)" d="m38.046 49.935c0.969 1.608 0.969 4.245 0 5.86l-17.617 29.456c-0.682 1.456 0.025 2.61 1.773 2.61h7.328l15.688-26.058-7.172-11.868z"/><path id="path105" fill="url(#radialGradient4269)" d="m22.203 17.861c-1.881 0-2.629 1.321-1.66 2.93l28.617 47.536c0.9 1.502 0.928 3.87 0.139 5.499l6.957-11.579-26.721-44.386h-7.332z"/><path id="path112" fill="url(#radialGradient4271)" d="m60.13 49.935-17.505-29.144c-0.967-1.608-3.295-2.93-5.172-2.93h-7.918l26.721 44.386 3.875-6.452c0.968-1.615 0.968-4.252-0.001-5.86z"/><path id="path119" fill="url(#linearGradient4273)" d="m49.16 68.327-11.114-18.392c0.969 1.608 0.969 4.245 0 5.86l-3.91 6.514 15.162 11.518c0.789-1.63 0.762-3.998-0.138-5.5z"/></g><path id="path128" fill="url(#radialGradient4275)" d="m60.13 49.935-17.505-29.144c-0.967-1.608-3.295-2.93-5.172-2.93h-15.25c-1.881 0-2.629 1.321-1.66 2.93l17.504 29.144c0.969 1.608 0.969 4.245 0 5.86l-17.618 29.456c-0.682 1.456 0.025 2.61 1.773 2.61h15.25c1.877 0 4.205-1.315 5.172-2.93l13.631-22.685 3.875-6.452c0.969-1.614 0.969-4.251 0-5.859z"/></g><g id="g130" display="none"><g id="g132" fill="#4d4d4d" display="inline"><path id="path134" d="m153.04 64.601"/><path id="path136" d="m92.732 50.02h14.324v17.905c-3.891 1.335-8.162 1.996-12.832 1.996-5.113 0-9.066-1.482-11.863-4.448s-4.188-7.205-4.188-12.706c0-5.354 1.525-9.52 4.588-12.505 3.059-2.988 7.34-4.46 12.852-4.46 2.092 0 4.059 0.188 5.91 0.588 1.863 0.39 3.482 0.884 4.861 1.484l-2.852 7.036c-2.387-1.18-5.016-1.768-7.879-1.768-2.607 0-4.637 0.861-6.068 2.557-1.439 1.704-2.145 4.132-2.145 7.3 0 3.104 0.641 5.47 1.945 7.099 1.283 1.631 3.145 2.432 5.586 2.432 1.336 0 2.564-0.117 3.68-0.382v-5.195h-5.92v-6.933z"/><path id="path138" d="m130.83 52.482c0-3.051-0.6-5.302-1.799-6.773-1.199-1.462-3.039-2.199-5.49-2.199h-2.609v18.598h2c2.734 0 4.732-0.79 5.994-2.378 1.273-1.568 1.904-3.998 1.904-7.248m9.306-0.315c0 5.532-1.514 9.804-4.574 12.802-3.039 2.997-7.33 4.491-12.852 4.491h-10.74v-33.197h11.484c5.322 0 9.436 1.369 12.336 4.093 2.905 2.714 4.344 6.658 4.344 11.811"/><path id="path140" d="m157.55 50.02h14.336v17.905c-3.893 1.335-8.172 1.996-12.832 1.996-5.111 0-9.066-1.482-11.865-4.448-2.787-2.966-4.184-7.205-4.184-12.706 0-5.354 1.523-9.52 4.584-12.505 3.051-2.988 7.34-4.46 12.854-4.46 2.082 0 4.061 0.188 5.922 0.588 1.84 0.39 3.461 0.884 4.838 1.484l-2.838 7.036c-2.389-1.18-5.02-1.768-7.879-1.768-2.621 0-4.639 0.861-6.08 2.557-1.42 1.704-2.137 4.132-2.137 7.3 0 3.104 0.643 5.47 1.936 7.099 1.295 1.631 3.156 2.432 5.596 2.432 1.336 0 2.568-0.117 3.684-0.382v-5.195h-5.934v-6.933z"/></g></g></g></g><g id="DevFest" transform="translate(-19.897 -17.893)"><g id="g143" fill="#4d4d4d"><path id="path145" d="m155.45 35.114c0 3.158-0.863 5.591-2.588 7.3-1.726 1.708-4.151 2.562-7.276 2.562h-6.075v-18.921h6.499c3.014 0 5.341 0.776 6.981 2.33 1.639 1.553 2.459 3.796 2.459 6.729zm-5.266 0.181c0-1.734-0.34-3.02-1.021-3.857s-1.715-1.255-3.102-1.255h-1.477v10.6h1.13c1.542 0 2.671-0.451 3.391-1.353 0.719-0.901 1.079-2.279 1.079-4.135z"/><path id="path147" d="m163.96 45.235c-2.423 0-4.305-0.649-5.645-1.948-1.34-1.298-2.01-3.147-2.01-5.546 0-2.477 0.621-4.376 1.862-5.701s3.014-1.987 5.317-1.987c2.192 0 3.885 0.576 5.08 1.728 1.194 1.152 1.792 2.811 1.792 4.976v2.252h-8.978c0.034 0.82 0.332 1.462 0.893 1.928s1.325 0.699 2.292 0.699c0.882 0 1.693-0.084 2.434-0.252 0.74-0.168 1.543-0.455 2.408-0.86v3.637c-0.788 0.406-1.602 0.686-2.44 0.841-0.839 0.156-1.841 0.233-3.005 0.233zm-0.295-11.738c-0.591 0-1.085 0.188-1.484 0.563-0.398 0.375-0.631 0.964-0.7 1.767h4.315c-0.017-0.708-0.216-1.272-0.597-1.695-0.381-0.424-0.892-0.635-1.534-0.635z"/><path id="path149" d="m175.44 44.977-5.549-14.664h5.24l2.466 8.672c0.008 0.043 0.025 0.116 0.051 0.22 0.025 0.104 0.051 0.227 0.077 0.369 0.025 0.142 0.049 0.293 0.07 0.453s0.032 0.309 0.032 0.447h0.09c0-0.449 0.077-0.936 0.231-1.462l2.582-8.698h5.228l-5.549 14.664h-4.969z"/><path id="path151" d="m191.4 44.977h-4.997v-18.922h11.097v4.103h-6.101v3.611h5.626v4.103h-5.626v7.105z"/><path id="path153" d="m205.74 45.235c-2.424 0-4.305-0.649-5.646-1.948-1.34-1.298-2.01-3.147-2.01-5.546 0-2.477 0.621-4.376 1.862-5.701s3.014-1.987 5.317-1.987c2.192 0 3.886 0.576 5.08 1.728s1.792 2.811 1.792 4.976v2.252h-8.979c0.034 0.82 0.332 1.462 0.893 1.928s1.325 0.699 2.293 0.699c0.882 0 1.693-0.084 2.434-0.252s1.544-0.455 2.408-0.86v3.637c-0.787 0.406-1.601 0.686-2.44 0.841-0.838 0.156-1.84 0.233-3.004 0.233zm-0.296-11.738c-0.591 0-1.085 0.188-1.483 0.563-0.397 0.375-0.631 0.964-0.7 1.767h4.316c-0.018-0.708-0.217-1.272-0.598-1.695s-0.893-0.635-1.535-0.635z"/><path id="path155" d="m224.63 40.473c0 1.57-0.531 2.757-1.593 3.559s-2.586 1.204-4.572 1.204c-1.079 0-2.017-0.058-2.813-0.175-0.796-0.116-1.609-0.33-2.44-0.641v-4.051c0.779 0.345 1.634 0.63 2.562 0.854 0.93 0.225 1.758 0.336 2.485 0.336 1.088 0 1.632-0.25 1.632-0.75 0-0.259-0.152-0.49-0.456-0.692-0.305-0.203-1.188-0.598-2.652-1.184-1.336-0.552-2.27-1.18-2.8-1.883-0.531-0.703-0.797-1.594-0.797-2.673 0-1.363 0.522-2.424 1.567-3.184 1.044-0.759 2.521-1.139 4.431-1.139 0.959 0 1.86 0.106 2.704 0.317 0.843 0.211 1.719 0.52 2.626 0.925l-1.361 3.261c-0.668-0.302-1.374-0.559-2.119-0.77s-1.353-0.317-1.823-0.317c-0.822 0-1.233 0.203-1.233 0.608 0 0.25 0.144 0.464 0.43 0.641 0.287 0.177 1.115 0.537 2.485 1.081 1.02 0.423 1.779 0.837 2.28 1.243 0.501 0.405 0.869 0.882 1.104 1.43s0.353 1.215 0.353 2z"/><path id="path157" d="m232.97 41.236c0.677 0 1.485-0.168 2.428-0.505v3.688c-0.677 0.293-1.321 0.503-1.934 0.628s-1.329 0.188-2.151 0.188c-1.687 0-2.902-0.416-3.647-1.249s-1.117-2.111-1.117-3.837v-6.044h-1.76v-2.058l2.235-1.592 1.297-3.081h3.288v2.938h3.57v3.792h-3.57v5.708c0 0.95 0.454 1.424 1.361 1.424z"/></g></g><g id="Silicon_Valley" transform="translate(-19.897 -17.893)"><g id="g160" fill="#4d4d4d"><path id="path162" d="m89.801 75.156h-12.097v-2.173l4.602-4.626c1.359-1.392 2.26-2.379 2.704-2.961 0.444-0.581 0.767-1.129 0.971-1.642 0.203-0.513 0.305-1.062 0.305-1.647 0-0.806-0.242-1.44-0.727-1.904-0.484-0.464-1.153-0.696-2.008-0.696-0.684 0-1.345 0.126-1.984 0.379-0.639 0.252-1.377 0.708-2.215 1.367l-1.55-1.893c0.993-0.838 1.957-1.433 2.893-1.782 0.936-0.35 1.933-0.524 2.991-0.524 1.66 0 2.991 0.433 3.992 1.3 1.001 0.866 1.501 2.032 1.501 3.497 0 0.806-0.145 1.57-0.434 2.295s-0.732 1.471-1.331 2.24c-0.598 0.769-1.593 1.809-2.984 3.119l-3.101 3.003v0.122h8.472v2.526z"/><path id="path164" d="m102.57 66.233c0 3.101-0.499 5.403-1.496 6.909-0.997 1.505-2.521 2.258-4.571 2.258-1.986 0-3.491-0.777-4.517-2.331-1.025-1.555-1.538-3.833-1.538-6.836 0-3.149 0.499-5.471 1.495-6.965 0.997-1.493 2.517-2.239 4.56-2.239 1.994 0 3.503 0.781 4.529 2.344s1.538 3.849 1.538 6.86zm-9.217 0c0 2.433 0.25 4.17 0.75 5.212s1.3 1.562 2.399 1.562 1.902-0.529 2.411-1.587 0.763-2.787 0.763-5.188c0-2.393-0.254-4.124-0.763-5.194-0.508-1.07-1.312-1.605-2.411-1.605s-1.898 0.525-2.399 1.575-0.75 2.792-0.75 5.225z"/><path id="path166" d="m111.67 75.156h-2.869v-11.523c0-1.375 0.032-2.466 0.098-3.271-0.188 0.195-0.417 0.411-0.69 0.647-0.272 0.235-1.186 0.984-2.74 2.246l-1.44-1.819 5.249-4.126h2.393v17.846z"/><path id="path168" d="m127.44 61.411c0 1.131-0.33 2.073-0.989 2.826s-1.587 1.259-2.783 1.52v0.098c1.432 0.179 2.506 0.625 3.223 1.337 0.716 0.712 1.074 1.658 1.074 2.838 0 1.717-0.606 3.042-1.819 3.974s-2.938 1.397-5.176 1.397c-1.978 0-3.646-0.321-5.005-0.964v-2.552c0.757 0.374 1.558 0.663 2.405 0.867 0.846 0.203 1.66 0.305 2.441 0.305 1.383 0 2.417-0.256 3.101-0.769s1.025-1.307 1.025-2.381c0-0.952-0.378-1.652-1.135-2.1s-1.945-0.671-3.564-0.671h-1.55v-2.332h1.575c2.848 0 4.272-0.984 4.272-2.954 0-0.765-0.249-1.354-0.745-1.77-0.497-0.415-1.229-0.623-2.197-0.623-0.676 0-1.327 0.096-1.953 0.287-0.627 0.191-1.367 0.563-2.222 1.117l-1.404-2.002c1.636-1.205 3.536-1.807 5.701-1.807 1.798 0 3.202 0.386 4.211 1.159 1.01 0.775 1.514 1.841 1.514 3.2z"/><path id="path170" d="m145.33 70.311c0 1.587-0.574 2.832-1.721 3.735s-2.73 1.354-4.749 1.354-3.67-0.313-4.956-0.939v-2.759c0.813 0.382 1.678 0.684 2.594 0.903s1.768 0.329 2.558 0.329c1.155 0 2.008-0.22 2.557-0.659s0.824-1.029 0.824-1.77c0-0.668-0.252-1.233-0.757-1.697s-1.546-1.013-3.125-1.647c-1.628-0.659-2.775-1.412-3.442-2.259s-1.001-1.863-1.001-3.052c0-1.489 0.529-2.661 1.587-3.516 1.058-0.854 2.478-1.281 4.26-1.281 1.709 0 3.41 0.374 5.103 1.123l-0.928 2.38c-1.587-0.667-3.003-1.001-4.248-1.001-0.944 0-1.66 0.206-2.148 0.616-0.488 0.411-0.732 0.954-0.732 1.63 0 0.464 0.098 0.86 0.293 1.19 0.195 0.329 0.517 0.641 0.964 0.934s1.253 0.68 2.417 1.16c1.31 0.545 2.271 1.054 2.881 1.525s1.058 1.005 1.343 1.6c0.283 0.595 0.426 1.295 0.426 2.101z"/><path id="path172" d="m152.87 75.4c-2.1 0-3.742-0.612-4.926-1.837s-1.776-2.911-1.776-5.06c0-2.206 0.549-3.939 1.648-5.2 1.099-1.262 2.608-1.893 4.529-1.893 1.782 0 3.19 0.541 4.224 1.624 1.033 1.082 1.55 2.571 1.55 4.468v1.55h-8.997c0.041 1.311 0.395 2.317 1.062 3.021s1.607 1.056 2.82 1.056c0.797 0 1.54-0.075 2.228-0.226 0.688-0.15 1.426-0.401 2.216-0.751v2.332c-0.7 0.333-1.408 0.569-2.124 0.707-0.717 0.14-1.534 0.209-2.454 0.209zm-0.525-11.816c-0.912 0-1.642 0.289-2.191 0.867-0.549 0.577-0.877 1.42-0.982 2.526h6.128c-0.017-1.115-0.285-1.959-0.806-2.533-0.521-0.573-1.238-0.86-2.149-0.86z"/><path id="path174" d="m168.33 75.156-0.574-1.88h-0.098c-0.651 0.822-1.306 1.382-1.965 1.679s-1.506 0.445-2.539 0.445c-1.327 0-2.362-0.358-3.107-1.074s-1.117-1.729-1.117-3.039c0-1.392 0.517-2.441 1.55-3.149s2.608-1.095 4.724-1.16l2.332-0.073v-0.72c0-0.863-0.202-1.508-0.604-1.936-0.403-0.427-1.027-0.641-1.874-0.641-0.692 0-1.355 0.102-1.99 0.306-0.635 0.203-1.245 0.443-1.831 0.72l-0.928-2.051c0.732-0.383 1.534-0.673 2.405-0.873 0.871-0.199 1.692-0.299 2.466-0.299 1.717 0 3.013 0.374 3.888 1.123s1.312 1.925 1.312 3.528v9.094h-2.05zm-4.273-1.953c1.042 0 1.878-0.291 2.508-0.873 0.631-0.581 0.946-1.397 0.946-2.447v-1.172l-1.733 0.073c-1.351 0.049-2.333 0.274-2.948 0.678-0.614 0.402-0.921 1.02-0.921 1.85 0 0.602 0.179 1.067 0.537 1.397 0.358 0.329 0.895 0.494 1.611 0.494z"/><path id="path176" d="m181.95 71.312c0 1.318-0.48 2.329-1.44 3.033s-2.336 1.056-4.126 1.056c-1.799 0-3.243-0.272-4.333-0.817v-2.479c1.587 0.732 3.064 1.099 4.431 1.099 1.766 0 2.649-0.533 2.649-1.599 0-0.342-0.098-0.627-0.293-0.854-0.195-0.229-0.517-0.464-0.964-0.708-0.448-0.244-1.07-0.521-1.868-0.83-1.555-0.603-2.606-1.205-3.156-1.807-0.549-0.603-0.824-1.384-0.824-2.344 0-1.156 0.466-2.053 1.397-2.692 0.932-0.639 2.199-0.958 3.803-0.958 1.587 0 3.088 0.321 4.504 0.965l-0.928 2.16c-1.457-0.603-2.682-0.903-3.674-0.903-1.514 0-2.271 0.432-2.271 1.294 0 0.423 0.197 0.781 0.592 1.074s1.255 0.696 2.582 1.209c1.115 0.431 1.924 0.825 2.429 1.184 0.504 0.358 0.879 0.771 1.123 1.239s0.367 1.026 0.367 1.678z"/><path id="path178" d="m195.53 68.382c0 2.205-0.564 3.926-1.696 5.163s-2.706 1.855-4.724 1.855c-1.262 0-2.376-0.285-3.345-0.854s-1.713-1.388-2.234-2.453c-0.521-1.066-0.781-2.304-0.781-3.711 0-2.189 0.562-3.898 1.685-5.127s2.706-1.844 4.749-1.844c1.953 0 3.499 0.629 4.639 1.886 1.139 1.258 1.707 2.952 1.707 5.085zm-9.826 0c0 3.116 1.151 4.675 3.455 4.675 2.278 0 3.418-1.559 3.418-4.675 0-3.085-1.147-4.627-3.442-4.627-1.205 0-2.077 0.398-2.619 1.196-0.541 0.798-0.812 1.942-0.812 3.431z"/><path id="path180" d="m209.2 75.156h-2.881v-8.301c0-1.042-0.209-1.818-0.628-2.331-0.42-0.513-1.085-0.77-1.996-0.77-1.213 0-2.1 0.358-2.661 1.074s-0.843 1.917-0.843 3.602v6.726h-2.868v-13.501h2.246l0.402 1.771h0.146c0.407-0.644 0.985-1.14 1.733-1.489 0.749-0.351 1.579-0.525 2.49-0.525 3.239 0 4.858 1.648 4.858 4.944v8.8z"/></g></g><g id="GDG" transform="translate(-19.897 -17.893)"><g id="g183" fill="#4d4d4d"><path id="path185" d="m84.241 34.34h8.168v10.2c-2.218 0.76-4.656 1.139-7.313 1.139-2.917 0-5.171-0.846-6.764-2.537-1.592-1.691-2.388-4.103-2.388-7.236 0-3.055 0.872-5.432 2.615-7.132s4.185-2.55 7.327-2.55c1.191 0 2.314 0.112 3.372 0.336 1.057 0.225 1.978 0.509 2.763 0.854l-1.618 4.013c-1.364-0.673-2.861-1.01-4.492-1.01-1.493 0-2.647 0.485-3.463 1.456-0.815 0.971-1.223 2.358-1.223 4.162 0 1.769 0.369 3.118 1.107 4.045s1.801 1.391 3.19 1.391c0.759 0 1.458-0.073 2.097-0.22v-2.964h-3.378v-3.947z"/><path id="path187" d="m110.74 35.557c0 3.159-0.869 5.592-2.608 7.301-1.739 1.708-4.184 2.563-7.333 2.563h-6.125v-18.925h6.55c3.037 0 5.382 0.777 7.035 2.33s2.479 3.798 2.479 6.731zm-5.307 0.182c0-1.735-0.343-3.021-1.029-3.857s-1.728-1.256-3.126-1.256h-1.489v10.602h1.139c1.553 0 2.692-0.451 3.417-1.353s1.088-2.281 1.088-4.136z"/><path id="path189" d="m120.14 34.34h8.168v10.2c-2.218 0.76-4.656 1.139-7.313 1.139-2.917 0-5.171-0.846-6.764-2.537-1.592-1.691-2.388-4.103-2.388-7.236 0-3.055 0.872-5.432 2.615-7.132s4.185-2.55 7.327-2.55c1.191 0 2.314 0.112 3.372 0.336 1.057 0.225 1.978 0.509 2.763 0.854l-1.618 4.013c-1.364-0.673-2.861-1.01-4.492-1.01-1.493 0-2.647 0.485-3.463 1.456-0.815 0.971-1.223 2.358-1.223 4.162 0 1.769 0.369 3.118 1.107 4.045s1.801 1.391 3.19 1.391c0.759 0 1.458-0.073 2.097-0.22v-2.964h-3.378v-3.947z"/></g></g></g></svg>
